<svg width="25" height="25" viewBox="0 0 25 25" fill="none" xmlns="http://www.w3.org/2000/svg">
    <linearGradient xmlns="http://www.w3.org/2000/svg" id="paint0_linear" x1="6.88952" y1="1.73016" x2="27.8689" y2="33.2773" gradientUnits="userSpaceOnUse">
        <stop stop-color="#73DFE7"></stop>
        <stop offset="1" stop-color="#0095F7"></stop>
    </linearGradient>
    <path d="M22.3721 7.86264L16.2697 1.80305C16.1623 1.6963 15.2031 0.76848 13.7477 0.292252C11.664 -0.397457 9.59676 0.144458 7.91818 1.80305L1.81578 7.86264C1.70829 7.96937 0.773909 8.92183 0.294317 10.3669C-0.400265 12.4361 0.145478 14.4887 1.81578 16.1556L7.91818 22.2152C8.02568 22.3219 8.98486 23.2498 10.4402 23.7342C11.0355 23.9312 11.6226 24.0298 12.2015 24.0298C13.6651 24.0298 15.0707 23.414 16.2697 22.2234L22.3721 16.1638C22.4796 16.0571 23.414 15.1046 23.8936 13.6595C24.5882 11.5821 24.0424 9.52943 22.3721 7.86264ZM12.5652 3.56016C13.2516 3.76543 13.7642 4.23345 13.8056 4.26629L15.6083 6.05625L12.0939 9.54586L8.57969 6.05625L10.3905 4.25809C10.8784 3.78185 11.5565 3.26457 12.5652 3.56016ZM3.58531 11.5411C3.79204 10.8595 4.26336 10.3505 4.29643 10.3095L6.09904 8.5195L9.61329 12.0091L6.09904 15.4988L4.28816 13.7005C3.80858 13.2161 3.28763 12.5346 3.58531 11.5411ZM11.6226 20.4581C10.9364 20.2528 10.4236 19.7848 10.3823 19.7519L8.57969 17.962L12.0939 14.4723L15.6083 17.962L13.7973 19.7601C13.3095 20.2364 12.6232 20.7537 11.6226 20.4581ZM20.6025 12.4771C20.3959 13.1586 19.9245 13.6677 19.8914 13.7087L18.0889 15.4988L14.5746 12.0091L18.0889 8.5195L19.8997 10.3176C20.3793 10.8021 20.9003 11.4754 20.6025 12.4771Z" fill="url(#paint0_linear)"></path>
</svg>